<svg xmlns="http://www.w3.org/2000/svg" width="40" height="40" viewBox="0 0 40 40">
    <defs>
        <style>.a{fill:none;}.b{fill:#82de0b;}</style>
    </defs>
    <g transform="translate(-0.398 -0.447)">
        <rect class="a" width="40" height="40" rx="12" transform="translate(0.398 0.447)" />
        <g transform="translate(5.301 5.301)">
            <g transform="translate(0 0)">
                <path class="b" d="M33.563,14.08a14.828,14.828,0,0,1-2.929.86,5.319,5.319,0,0,0,2.173-2.962,9.389,9.389,0,0,1-3.212,1.242,5,5,0,0,0-3.684-1.72A5.2,5.2,0,0,0,20.9,16.851,5.509,5.509,0,0,0,21,18.093a13.873,13.873,0,0,1-10.392-5.542,5.112,5.112,0,0,0-.661,2.675,5.239,5.239,0,0,0,2.267,4.4,4.511,4.511,0,0,1-2.267-.669h0a5.252,5.252,0,0,0,4.062,5.255,5.517,5.517,0,0,1-1.323.191,3.179,3.179,0,0,1-.945-.1,5.177,5.177,0,0,0,4.724,3.726,9.644,9.644,0,0,1-6.235,2.293A5.328,5.328,0,0,1,9,30.228a13.761,13.761,0,0,0,7.747,2.389c9.258,0,14.36-8.122,14.36-15.1v-.669A11.438,11.438,0,0,0,33.563,14.08Z" transform="translate(-6.301 -6.355)" />
                <rect class="a" width="30" height="30" transform="translate(0.098 0.146)" />
            </g>
        </g>
    </g>
</svg>