<svg xmlns="http://www.w3.org/2000/svg" width="40" height="40" viewBox="0 0 40 40">
    <defs>
        <style>.a{fill:none;}.b{fill:#fefefe;}</style>
    </defs>
    <g transform="translate(-0.495 -0.447)">
        <rect class="a" width="40" height="40" rx="12" transform="translate(0.495 0.447)" />
        <path class="b" d="M641.118,922.164a2.541,2.541,0,0,0-2.284,1.431,3.157,3.157,0,0,0-.357,1.577.617.617,0,0,1-.35.781c-2.61,1.348-5.2,2.734-7.792,4.117a.561.561,0,0,1-.568.055,2.536,2.536,0,0,0-4.061.023l-.015.016c-.287.331-.485.39-.869.184-2.278-1.221-4.573-2.413-6.856-3.627a3.375,3.375,0,0,1-1.69-3.566c.2-1.047.789-1.351,1.725-.861,2.874,1.5,5.749,3.005,8.608,4.537a1.543,1.543,0,0,0,1.59.018q6.91-3.6,13.832-7.174c.3-.154.6-.312.6-.707.009-.431-.311-.6-.636-.756q-4.873-2.311-9.746-4.621a2.2,2.2,0,0,0-2.031,0q-7.018,3.464-14.039,6.922A2.511,2.511,0,0,0,614.959,922a4.826,4.826,0,0,0,2.163,5.709c2.492,1.32,5,2.61,7.508,3.9a1.594,1.594,0,0,1,.609.483,2.541,2.541,0,0,0,5,.024c0-.01.005-.019.007-.029.083-.4.421-.566.755-.744q3.763-2.01,7.51-4.05a3.33,3.33,0,0,1,1.138-.512,2.543,2.543,0,1,0,1.464-4.621Zm-12.456,9.5a.918.918,0,1,1-.918-.918A.918.918,0,0,1,628.662,931.662Zm13.374-6.955a.918.918,0,1,1-.918-.918A.918.918,0,0,1,642.036,924.707Z" transform="translate(-608.364 -903.728)" />
    </g>
</svg>