<svg xmlns="http://www.w3.org/2000/svg" width="40" height="40" viewBox="0 0 40 40">
    <defs>
        <style>.a{fill:none;}.b{fill:#fff;stroke:rgba(0,0,0,0);stroke-miterlimit:10;}</style>
    </defs>
    <g transform="translate(-0.418 -0.447)">
        <rect class="a" width="40" height="40" rx="12" transform="translate(0.418 0.447)" />
        <g transform="translate(7.624 11.295)">
            <path class="b" d="M19.279,18.366h0c-.074,0-.149,0-.224,0l-.046-.054c-.561-.667-1.037-1.244-1.413-1.715a6.978,6.978,0,0,0,4-2.615,12.8,12.8,0,0,1-2.542,1.289,14.8,14.8,0,0,1-3.2.936,15.744,15.744,0,0,1-2.8.253,15.753,15.753,0,0,1-2.921-.274,18.971,18.971,0,0,1-3.249-.936,13.067,13.067,0,0,1-1.713-.8.838.838,0,0,1-.1-.054.293.293,0,0,1-.089-.066c-.387-.214-.609-.365-.618-.371A6.881,6.881,0,0,0,8.223,16.53c-.642.8-1.446,1.772-1.48,1.813-.079,0-.157,0-.235,0A8.058,8.058,0,0,1,0,15.024,29.138,29.138,0,0,1,3.185,2.294,10.966,10.966,0,0,1,9.4,0l.218.263A15.086,15.086,0,0,0,3.809,3.118c.013-.008.044-.024.085-.045.182-.092.608-.308,1.214-.584a16.743,16.743,0,0,1,5.016-1.374h.048a1.838,1.838,0,0,1,.327-.035,18.848,18.848,0,0,1,4.465-.044,18.075,18.075,0,0,1,6.655,2.1,14.694,14.694,0,0,0-5.5-2.774l.309-.348a10.973,10.973,0,0,1,6.21,2.292,29.123,29.123,0,0,1,3.185,12.73A8.123,8.123,0,0,1,19.279,18.366ZM16.584,6.444a2.184,2.184,0,0,0-2.053,2.291,2.184,2.184,0,0,0,2.053,2.29,2.184,2.184,0,0,0,2.053-2.29A2.184,2.184,0,0,0,16.584,6.444Zm-7.349,0A2.184,2.184,0,0,0,7.183,8.735a2.184,2.184,0,0,0,2.053,2.29,2.185,2.185,0,0,0,2.055-2.29,2.364,2.364,0,0,0-.659-1.691A1.953,1.953,0,0,0,9.235,6.444Z" transform="translate(0)" />
        </g>
    </g>
</svg>