<svg xmlns="http://www.w3.org/2000/svg" width="40" height="40" viewBox="0 0 40 40"><defs><style>.a{fill:none;}.b{fill:#8992a1;}</style></defs><g transform="translate(-0.456 -0.447)"><rect class="a" width="40" height="40" rx="12" transform="translate(0.456 0.447)"/><path class="b" d="M173.392,238.48a.929.929,0,0,0-.288-.769l-2.15-2.649v-.4h6.672l5.155,11.572,4.537-11.572h6.356v.4l-1.833,1.8a.568.568,0,0,0-.208.528v13.243a.568.568,0,0,0,.208.528l1.79,1.8v.4h-9.024v-.4l1.862-1.846c.18-.187.18-.242.18-.528v-10.7l-5.17,13.43h-.7l-6.011-13.43v9a1.263,1.263,0,0,0,.331,1.033l2.416,3v.4h-6.852v-.4l2.416-3a1.207,1.207,0,0,0,.309-1.033Z" transform="translate(-161.58 -223.307)"/></g></svg>