<svg xmlns="http://www.w3.org/2000/svg" width="40" height="40" viewBox="0 0 40 40"><defs><style>.a{fill:none;}.b{fill:#8992a1;}</style></defs><g transform="translate(-0.437 -0.447)"><rect class="a" width="40" height="40" rx="12" transform="translate(0.437 0.447)"/><g transform="translate(10.602 9.087)"><path class="b" d="M197.273,453.892a5.652,5.652,0,0,0-.194-3.777,4.293,4.293,0,0,0-1.707.267,7.263,7.263,0,0,0-1.371.6q-.446.28-.81.532a13.658,13.658,0,0,0-3.622-.448,13.344,13.344,0,0,0-3.594.448c-.2-.149-.443-.311-.713-.489a7.9,7.9,0,0,0-1.412-.643,4.352,4.352,0,0,0-1.818-.322,5.464,5.464,0,0,0-.167,3.832,6.269,6.269,0,0,0-1.538,4.222,6.537,6.537,0,0,0,1.566,4.418,7.987,7.987,0,0,0,4.811,2.406,3.985,3.985,0,0,0-1.118,1.959q-2.378.585-3.328-.841-1.764-2.573-3.16-1.845c-.131.13-.112.266.055.405s.419.326.756.56a2.576,2.576,0,0,1,.755.77c.018.037.07.173.155.405s.164.449.25.671a2.446,2.446,0,0,0,.476.713,3.261,3.261,0,0,0,.811.658,3.761,3.761,0,0,0,1.272.391,7.205,7.205,0,0,0,1.846.014v1.814a1.983,1.983,0,0,0,1.616,1.96,13.881,13.881,0,0,0,4.936,0,1.982,1.982,0,0,0,1.614-1.959h0v-2.766a3.962,3.962,0,0,0-1.2-2.908,7.929,7.929,0,0,0,4.809-2.391,6.521,6.521,0,0,0,1.595-4.433A6.194,6.194,0,0,0,197.273,453.892Z" transform="translate(-179.009 -450.052)"/></g></g></svg>