<svg id="hoo" xmlns="http://www.w3.org/2000/svg" width="137" height="78" viewBox="0 0 137 78">
  <path id="right" d="M65.97,59.847A34.807,34.807,0,0,0,72.839,39.6l.005-.6h4.277A21.387,21.387,0,1,1,98.507,60.667,21.321,21.321,0,0,1,80.032,49.913a43.43,43.43,0,0,1-8.561,16.848A38.12,38.12,0,0,0,98.507,78C119.765,78,137,60.54,137,39S119.765,0,98.507,0,60.013,17.46,60.013,39A39.188,39.188,0,0,0,65.97,59.847Z" fill="#34b2c5"/>
  <path id="left" d="M76.987,39c0,21.54-17.233,39-38.493,39S0,60.54,0,39,17.235,0,38.493,0A38.12,38.12,0,0,1,65.529,11.239a43.446,43.446,0,0,0-8.561,16.846A21.337,21.337,0,0,0,17.108,39a21.387,21.387,0,1,0,42.77,0H76.987Z" fill="#bdc5d1"/>
</svg>
