<?xml version="1.0" encoding="utf-8"?>
<!-- Generator: Adobe Illustrator 24.0.1, SVG Export Plug-In . SVG Version: 6.00 Build 0)  -->
<svg version="1.1" id="图层_1" xmlns="http://www.w3.org/2000/svg" xmlns:xlink="http://www.w3.org/1999/xlink" x="0px" y="0px"
	 viewBox="0 0 1920 1920" style="enable-background:new 0 0 1920 1920;" xml:space="preserve">
<style type="text/css">
	.st0{fill:url(#SVGID_1_);}
</style>
<linearGradient id="SVGID_1_" gradientUnits="userSpaceOnUse" x1="89.0914" y1="960.0001" x2="1830.6086" y2="960.0001">
	<stop  offset="0" style="stop-color:#00C19C"/>
	<stop  offset="1" style="stop-color:#00DCB1"/>
</linearGradient>
<path class="st0" d="M1325,453.9c-189.7,0-355.1,104.6-441.6,259.1c-1.6,3.5-3.7,7.2-6.5,11.8c-6.2,12-12.3,24.3-17.6,37
	c-11.1,29.6-19.7,66.4-26.4,102c-6.7,36.1-11.3,70.5-14.1,95.3c0,0.5,0,0.7,0,0.9l0,0l0,0c0,1.2-0.2,2.1-0.5,3
	c-1.6,121.9-100.9,220.2-223.2,220.2c-123.3,0-223.2-99.9-223.2-223.2s99.9-223.2,223.2-223.2c63.6,0,121,26.6,161.5,69.2
	c23.1-85.6,65.7-167.2,128.8-237.8c4.2-4.6,8.6-9,12.7-13.6c-84.4-63.1-189.2-100.6-303-100.6C315.8,453.9,89.1,680.3,89.1,960
	s226.5,505.6,506.1,506.1c245.4,0.2,449.2-172.8,496.2-406.6c3.2-16.4,5.8-33.1,7.4-50l0,0c0,0,0-0.5,0-1.6c0.7-7.9,1.4-16,1.6-24.1
	c0.7-6.9,1.4-15,2.5-23.8c3.2-27.1,9-59.9,18.5-84.9c3.7-7.9,7.6-15.7,12-23.1c0.9-1.4,1.6-2.5,2.3-3.9
	c40-65.2,109.9-111.5,188.7-111.5c123.3,0,223.2,99.9,223.2,223.2s-99.9,223.2-223.2,223.2c-63.6,0-120.7-26.6-161.5-69.2
	c-25.9,95.5-75.2,181.6-141.6,251.2c84.4,63.1,189.2,100.6,303,100.6c279.4,0,506.1-226.5,506.1-506.1S1604.4,453.9,1325,453.9z"/>
</svg>
